<mxfile host="app.diagrams.net" modified="2023-12-05T01:23:01.963Z" agent="Mozilla/5.0 (Windows NT 10.0; Win64; x64) AppleWebKit/537.36 (KHTML, like Gecko) Chrome/119.0.0.0 Safari/537.36 Edg/119.0.0.0" version="22.1.5" etag="hS8pAaqWDAQ6JQEx_Kcn" type="github">
  <diagram name="第 1 页" id="wO8O_e4dGFHolmVWx12N">
    <mxGraphModel>
      <root>
        <mxCell id="0" />
        <mxCell id="1" parent="0" />
      </root>
    </mxGraphModel>
  </diagram>
</mxfile>
